<?xml version="1.0" encoding="utf-8"?>
<!-- Generator: Adobe Illustrator 27.5.0, SVG Export Plug-In . SVG Version: 6.00 Build 0)  -->
<svg version="1.1" xmlns="http://www.w3.org/2000/svg" xmlns:xlink="http://www.w3.org/1999/xlink" x="0px" y="0px"
	 viewBox="0 0 400 400" style="enable-background:new 0 0 700 700;" xml:space="preserve">
<g id="BACKGROUND">
	<rect style="fill:#121212;" width="700" height="700"/>
</g>
<g id="OBJECTS">
	<g>
		<linearGradient id="SVGID_1_" gradientUnits="userSpaceOnUse" x1="317.0541" y1="304.0613" x2="233.5471" y2="166.945">
			<stop  offset="0" style="stop-color:#E9018B"/>
			<stop  offset="0.1183" style="stop-color:#E1038B"/>
			<stop  offset="0.2987" style="stop-color:#CC098C"/>
			<stop  offset="0.5186" style="stop-color:#AA128E"/>
			<stop  offset="0.7672" style="stop-color:#7A1E90"/>
			<stop  offset="1" style="stop-color:#472C93"/>
		</linearGradient>
		<polygon style="fill-rule:evenodd;clip-rule:evenodd;fill:url(#SVGID_1_);" points="293.017,265.071 274.574,265.071 
			241.148,178.929 259.58,178.929 		"/>
		
			<linearGradient id="SVGID_00000118357974666965551430000013230751911526545028_" gradientUnits="userSpaceOnUse" x1="347.9517" y1="238.9792" x2="247.4335" y2="237.9483">
			<stop  offset="0" style="stop-color:#E9018B"/>
			<stop  offset="0.1183" style="stop-color:#E1038B"/>
			<stop  offset="0.2987" style="stop-color:#CC098C"/>
			<stop  offset="0.5186" style="stop-color:#AA128E"/>
			<stop  offset="0.7672" style="stop-color:#7A1E90"/>
			<stop  offset="1" style="stop-color:#472C93"/>
		</linearGradient>
		
			<polygon style="fill-rule:evenodd;clip-rule:evenodd;fill:url(#SVGID_00000118357974666965551430000013230751911526545028_);" points="
			232.852,245.947 267.148,245.947 267.316,245.947 285.592,245.947 282.297,237.435 279.385,229.939 279.289,229.939 
			261.12,229.939 260.941,229.939 239.059,229.939 238.235,229.939 220.615,229.939 214.408,245.947 232.41,245.947 		"/>
		
			<linearGradient id="SVGID_00000100361680180293047080000007805639348004101277_" gradientUnits="userSpaceOnUse" x1="255.2565" y1="157.0361" x2="210.4101" y2="287.4519">
			<stop  offset="0" style="stop-color:#E9018B"/>
			<stop  offset="0.1183" style="stop-color:#E1038B"/>
			<stop  offset="0.2987" style="stop-color:#CC098C"/>
			<stop  offset="0.5186" style="stop-color:#AA128E"/>
			<stop  offset="0.7672" style="stop-color:#7A1E90"/>
			<stop  offset="1" style="stop-color:#472C93"/>
		</linearGradient>
		
			<polygon style="fill-rule:evenodd;clip-rule:evenodd;fill:url(#SVGID_00000100361680180293047080000007805639348004101277_);" points="
			206.983,265.071 225.426,265.071 258.852,178.929 240.432,178.929 		"/>
	</g>
	<g>
		<g>
			
				
			<path style="fill-rule:evenodd;clip-rule:evenodd;fill:url(#SVGID_00000103946502313802779710000015580794424770137737_);" d="
				M251.597,143.346c-2.863-0.631-5.775-1.116-8.735-1.44c-2.863-0.307-5.775-0.469-8.719-0.469
				c-17.793,0-34.244,5.775-47.572,15.545c-19.783,14.493-32.691,37.802-32.966,64.136c-0.016,0.275-0.016,0.566-0.016,0.89
				c0,0.615,0.016,1.245,0.032,1.86C154.608,277.135,198.088,320,251.597,320c-26.706,0-50.371-12.989-65.026-32.982
				c-9.77-13.329-15.545-29.779-15.545-47.573c0-2.944,0.162-5.856,0.469-8.719c0.324-2.96,0.809-5.872,1.44-8.719
				c4.287-19.427,15.577-36.217,31.09-47.573c13.329-9.77,29.763-15.545,47.573-15.545c17.793,0,34.228,5.775,47.572,15.545
				C287.798,158.923,271.008,147.633,251.597,143.346L251.597,143.346z"/>
			
				<linearGradient id="SVGID_00000009567888298873114990000010013519604312804264_" gradientUnits="userSpaceOnUse" x1="141.8856" y1="346.6684" x2="246.271" y2="247.777">
				<stop  offset="0" style="stop-color:#E9018B"/>
				<stop  offset="0.1183" style="stop-color:#E1038B"/>
				<stop  offset="0.2987" style="stop-color:#CC098C"/>
				<stop  offset="0.5186" style="stop-color:#AA128E"/>
				<stop  offset="0.7672" style="stop-color:#7A1E90"/>
				<stop  offset="1" style="stop-color:#472C93"/>
			</linearGradient>
			<path style="fill-rule:evenodd;clip-rule:evenodd;fill:url(#SVGID_00000009567888298873114990000010013519604312804264_);" d="
				M349.589,222.008c0,26.69-12.989,50.355-32.982,65.01c-13.329,9.77-29.779,15.545-47.573,15.545
				c-2.944,0-5.856-0.162-8.719-0.469c-2.96-0.323-5.872-0.793-8.719-1.423c-19.427-4.286-36.217-15.593-47.573-31.09
				c-9.77-13.345-15.545-29.779-15.545-47.572c0-17.809,5.775-34.244,15.545-47.573c-15.512,11.355-26.803,28.146-31.09,47.573
				c-0.631,2.847-1.116,5.758-1.44,8.719c-0.307,2.863-0.469,5.775-0.469,8.719c0,17.793,5.775,34.244,15.545,47.573
				C201.226,307.011,224.891,320,251.597,320c0.372,0,0.76,0,1.148-0.016h0.275c0.21,0,0.421,0,0.647-0.016
				C306.821,318.868,349.589,275.436,349.589,222.008L349.589,222.008z"/>
			
				<linearGradient id="SVGID_00000173863065114249834540000015830132882456845491_" gradientUnits="userSpaceOnUse" x1="391.1272" y1="343.3608" x2="281.7795" y2="231.4898">
				<stop  offset="0" style="stop-color:#FF108E"/>
				<stop  offset="0.1857" style="stop-color:#F7148F"/>
				<stop  offset="0.4686" style="stop-color:#E21F91"/>
				<stop  offset="0.8117" style="stop-color:#C03094"/>
				<stop  offset="1" style="stop-color:#AA3B96"/>
			</linearGradient>
			<path style="fill-rule:evenodd;clip-rule:evenodd;fill:url(#SVGID_00000173863065114249834540000015830132882456845491_);" d="
				M349.573,220.536v0.34c0.016,0.372,0.016,0.744,0.016,1.132c0,26.69-12.989,50.355-32.982,65.01
				c-13.329,9.77-29.779,15.545-47.573,15.545c-2.944,0-5.856-0.162-8.719-0.469c-2.96-0.323-5.872-0.793-8.719-1.423
				c-19.427-4.286-36.217-15.593-47.573-31.09c13.329,9.77,29.763,15.529,47.573,15.529c17.793,0,34.228-5.758,47.572-15.529
				c15.496-11.371,26.803-28.162,31.09-47.572c0.631-2.863,1.1-5.775,1.423-8.735c0.307-2.863,0.469-5.775,0.469-8.719
				c0-17.793-5.775-34.244-15.545-47.572C301.952,136.989,278.287,124,251.597,124c53.444,0,96.892,42.801,97.96,95.986
				C349.573,220.164,349.573,220.358,349.573,220.536L349.573,220.536z"/>
			
				<linearGradient id="SVGID_00000052786342497867770410000004500554925851700869_" gradientUnits="userSpaceOnUse" x1="352.7599" y1="84.045" x2="264.3642" y2="185.3747">
				<stop  offset="0" style="stop-color:#E9018B"/>
				<stop  offset="0.1183" style="stop-color:#E1038B"/>
				<stop  offset="0.2987" style="stop-color:#CC098C"/>
				<stop  offset="0.5186" style="stop-color:#AA128E"/>
				<stop  offset="0.7672" style="stop-color:#7A1E90"/>
				<stop  offset="1" style="stop-color:#472C93"/>
			</linearGradient>
			<path style="fill-rule:evenodd;clip-rule:evenodd;fill:url(#SVGID_00000052786342497867770410000004500554925851700869_);" d="
				M239.32,124.938c3.332-0.518,6.745-0.825,10.207-0.906C246.146,124.113,242.717,124.421,239.32,124.938L239.32,124.938z
				 M330.259,222.008c0.631-2.863,1.1-5.775,1.423-8.735c0.307-2.863,0.469-5.775,0.469-8.719c0-17.793-5.775-34.244-15.545-47.572
				C301.952,136.989,278.287,124,251.597,124c-0.372,0-0.728,0-1.084,0.016c-0.178,0-0.372,0-0.55,0l-0.324,0.016
				c-53.218,1.035-96.051,44.499-96.051,97.976c0-26.706,12.989-50.371,32.982-65.026c13.329-9.77,29.779-15.545,47.572-15.545
				c2.944,0,5.856,0.162,8.719,0.469c2.96,0.324,5.872,0.809,8.735,1.44c19.411,4.287,36.201,15.577,47.572,31.09
				c9.77,13.329,15.529,29.763,15.529,47.573c0,17.793-5.759,34.228-15.529,47.572C314.666,258.209,325.973,241.419,330.259,222.008
				L330.259,222.008z"/>
			<g style="opacity:0.31;">
				
					<linearGradient id="SVGID_00000168079220731599283530000002125091804852103607_" gradientUnits="userSpaceOnUse" x1="155.6935" y1="159.312" x2="201.397" y2="193.8753">
					<stop  offset="0" style="stop-color:#FF108E"/>
					<stop  offset="0.1857" style="stop-color:#F7148F"/>
					<stop  offset="0.4686" style="stop-color:#E21F91"/>
					<stop  offset="0.8117" style="stop-color:#C03094"/>
					<stop  offset="1" style="stop-color:#AA3B96"/>
				</linearGradient>
				<path style="fill-rule:evenodd;clip-rule:evenodd;fill:url(#SVGID_00000168079220731599283530000002125091804852103607_);" d="
					M165.188,251.664c-3.04-8.884-4.708-18.281-4.886-27.92c-0.016-0.607-0.031-1.179-0.031-1.736c0-0.179-0.004-0.341,0.005-0.494
					l0.009-0.159l0.002-0.167c0.245-23.481,11.265-44.919,30.233-58.816c12.722-9.325,27.806-14.253,43.624-14.253
					c2.646,0,5.339,0.145,8.006,0.431c2.648,0.29,5.347,0.735,8.009,1.321c3.142,0.694,6.219,1.59,9.216,2.678
					c-2.572-0.226-5.166-0.34-7.777-0.34c-18.679,0-36.495,5.822-51.523,16.838c-17.146,12.552-29.103,30.85-33.664,51.522
					c-0.688,3.104-1.213,6.279-1.557,9.431c-0.338,3.152-0.509,6.325-0.509,9.446C164.344,243.567,164.628,247.648,165.188,251.664z
					"/>
				
					<linearGradient id="SVGID_00000091010469574084052390000006214071147822995588_" gradientUnits="userSpaceOnUse" x1="183.9762" y1="306.5233" x2="214.5754" y2="277.5346">
					<stop  offset="0" style="stop-color:#E9018B"/>
					<stop  offset="0.1183" style="stop-color:#E1038B"/>
					<stop  offset="0.2987" style="stop-color:#CC098C"/>
					<stop  offset="0.5186" style="stop-color:#AA128E"/>
					<stop  offset="0.7672" style="stop-color:#7A1E90"/>
					<stop  offset="1" style="stop-color:#472C93"/>
				</linearGradient>
				<path style="fill-rule:evenodd;clip-rule:evenodd;fill:url(#SVGID_00000091010469574084052390000006214071147822995588_);" d="
					M251.597,313.318c-23.458,0-45.752-11.309-59.637-30.25c-9.324-12.72-14.252-27.805-14.252-43.622
					c0-2.646,0.145-5.34,0.431-8.006c0.291-2.657,0.735-5.348,1.32-7.985c0.694-3.146,1.591-6.228,2.679-9.227
					c-0.226,2.574-0.34,5.169-0.34,7.782c0,18.661,5.821,36.476,16.835,51.519c12.569,17.154,30.867,29.11,51.524,33.668
					c3.012,0.667,6.188,1.186,9.433,1.541c3.147,0.338,6.32,0.508,9.444,0.508c4.123,0,8.205-0.284,12.224-0.845
					c-8.826,3.022-18.157,4.69-27.729,4.887l-0.176,0.004l-0.177,0.013l-0.568-0.002l-0.137,0.006
					c-0.227,0.009-0.454,0.01-0.676,0.01C251.729,313.318,251.663,313.318,251.597,313.318z"/>
				
					<linearGradient id="SVGID_00000066515574908881852090000015940053606191089060_" gradientUnits="userSpaceOnUse" x1="340.3213" y1="292.4801" x2="308.8399" y2="260.2722">
					<stop  offset="0" style="stop-color:#FF108E"/>
					<stop  offset="0.1857" style="stop-color:#F7148F"/>
					<stop  offset="0.4686" style="stop-color:#E21F91"/>
					<stop  offset="0.8117" style="stop-color:#C03094"/>
					<stop  offset="1" style="stop-color:#AA3B96"/>
				</linearGradient>
				<path style="fill-rule:evenodd;clip-rule:evenodd;fill:url(#SVGID_00000066515574908881852090000015940053606191089060_);" d="
					M269.035,295.881c-2.649,0-5.343-0.145-8.005-0.431c-2.751-0.301-5.442-0.74-7.988-1.304c-3.165-0.698-6.264-1.602-9.281-2.699
					c2.591,0.228,5.205,0.344,7.836,0.344c18.676,0,36.491-5.816,51.519-16.819c17.156-12.589,29.11-30.885,33.667-51.523
					c0.67-3.039,1.188-6.217,1.541-9.45c0.338-3.147,0.508-6.321,0.508-9.444c0-4.12-0.284-8.2-0.843-12.215
					c3.027,8.843,4.693,18.191,4.886,27.781l0.005,0.245l0.01,0.109v0.544l0.006,0.143c0.012,0.278,0.01,0.556,0.01,0.846
					c0,23.449-11.309,45.737-30.25,59.621C299.937,290.953,284.852,295.881,269.035,295.881z"/>
				
					<linearGradient id="SVGID_00000061447573766531612200000013887082881939748493_" gradientUnits="userSpaceOnUse" x1="315.7048" y1="132.0338" x2="289.2875" y2="162.3165">
					<stop  offset="0" style="stop-color:#E9018B"/>
					<stop  offset="0.1183" style="stop-color:#E1038B"/>
					<stop  offset="0.2987" style="stop-color:#CC098C"/>
					<stop  offset="0.5186" style="stop-color:#AA128E"/>
					<stop  offset="0.7672" style="stop-color:#7A1E90"/>
					<stop  offset="1" style="stop-color:#472C93"/>
				</linearGradient>
				<path style="fill-rule:evenodd;clip-rule:evenodd;fill:url(#SVGID_00000061447573766531612200000013887082881939748493_);" d="
					M321.035,229.84c0.229-2.59,0.344-5.202,0.344-7.832c0-18.694-5.817-36.51-16.821-51.523
					c-12.57-17.148-30.867-29.103-51.521-33.664c-3.132-0.691-6.31-1.214-9.449-1.558c-3.152-0.338-6.325-0.509-9.445-0.509
					c-4.115,0-8.189,0.283-12.199,0.841c5.919-2.025,12.064-3.441,18.357-4.214l0.025,0.161c2.968-0.452,5.949-0.728,8.863-0.818
					l0.779-0.02l0.16-0.008h0.539l0.153-0.007c0.18-0.008,0.361-0.01,0.546-0.01c0.076,0,0.153,0,0.231,0
					c23.448,0,45.737,11.309,59.621,30.251c9.324,12.72,14.252,27.804,14.252,43.622c0,2.649-0.145,5.342-0.431,8.005
					c-0.3,2.743-0.74,5.442-1.305,8.011C323.037,223.73,322.133,226.826,321.035,229.84z"/>
			</g>
		</g>
		<text transform="matrix(1 0 0 1 134.4099 355.376)" style="font-family:'Montserrat-Bold'; font-size:25.868px;">ARYAVHIR KOUL</text>

	</g>
</g>


</svg>
